<svg xmlns="http://www.w3.org/2000/svg" data-name="Слой 1" viewBox="0 0 100 125" x="0px" y="0px"><title>floral_icons</title><path d="M82.16,41a0.18,0.18,0,0,0,0-.13c-0.45-2.83-1.3-5.6-3.52-7.56a11,11,0,0,0-8.07-2.89c0.31-.46.62-0.92,1-1.35a11.12,11.12,0,0,1,3.2-2.26,4,4,0,0,0,1.78-2.25,4.39,4.39,0,0,1,.4,4.12q-0.28.5-.57,1a0.18,0.18,0,0,0,.3.2,4.87,4.87,0,0,0,.46-0.76C77.77,28,78.38,27,78.92,25.87s1.45-2.56,1.41-3.87c-0.1-2.92-4-1.86-5.8-2.09-2.81-.37-5.29-1.92-8.06-2.46a9.66,9.66,0,0,0-1-.14l0.13-.25a17.35,17.35,0,0,0,2.11-6.35c0.12-1.61-.11-3.65-1.4-4.73a0.45,0.45,0,0,0,0-.1,0.67,0.67,0,0,0-.55-0.69,0.26,0.26,0,0,0-.29.1,1.44,1.44,0,0,0-.14.2,0.28,0.28,0,0,0-.16.42,0.43,0.43,0,0,0,.39.59A0.51,0.51,0,0,0,66,6.39a4.31,4.31,0,0,1,1.26,2.85,10.4,10.4,0,0,1-.65,4.5A30.33,30.33,0,0,1,65,17.28a11.08,11.08,0,0,0-3.28.37,42.65,42.65,0,0,0,1.06-6.1,0.45,0.45,0,0,0-.25-0.72l-0.07,0a0.68,0.68,0,0,0-.46,0,0.62,0.62,0,0,0-.52-0.06,0.2,0.2,0,0,0-.15.18,0.83,0.83,0,0,0,.07.44,1,1,0,0,0-.13.47,0.18,0.18,0,0,0,.17.19,1.37,1.37,0,0,0,.6-0.18l0,0.06a0.2,0.2,0,0,0,.25.09,49.44,49.44,0,0,1-1.07,5.83,14.18,14.18,0,0,0-2.54,1.05c-0.27.14-.53,0.29-0.79,0.45,0.75-4.33,1.46-9-.15-13.18A0.32,0.32,0,0,0,58,5.74a0.48,0.48,0,0,0,0-.1,0.59,0.59,0,0,0-.08-0.18,1,1,0,0,0,.06-0.23A0.2,0.2,0,0,0,57.8,5a1.08,1.08,0,0,0-.72.07,0.65,0.65,0,0,0-.46.52,0.23,0.23,0,0,0,0,.06,1.35,1.35,0,0,0,0,.17,0.15,0.15,0,0,0,0,.14s0-.06,0-0.06S56.7,6,56.78,6h0a0.87,0.87,0,0,0,.53.29,0.31,0.31,0,0,0,.07,0c1.56,4.25.71,8.93-.06,13.31A30.06,30.06,0,0,0,51.48,25a50.11,50.11,0,0,0,.94-6.81,11.25,11.25,0,0,0-1.82-6.92A6.58,6.58,0,0,0,47.91,9a4.1,4.1,0,0,0-1.7-.33,15.44,15.44,0,0,1-2.27.34c-1.48-.17-2.34-1.68-3.69-2.16A2,2,0,0,0,38,7.24a1.89,1.89,0,0,0-1.74,1.38c-0.49,1.55.6,3,.92,4.48A0.22,0.22,0,0,0,37.6,13c-0.19-1.06-.76-2-0.91-3.09a1.87,1.87,0,0,1,.61-1.83,1.26,1.26,0,0,1,1.83.51,8.16,8.16,0,0,1,1,3.36,22.81,22.81,0,0,1,.08,3.17,24.3,24.3,0,0,0-4.57-2.27c-3.83-1.38-8.43-1.48-11.88.93s-5,7-6,11a0,0,0,0,0,0,0c1.19-3.65,2.36-7.63,5.41-10.2,3.46-2.93,8.36-2.84,12.39-1.29a25.86,25.86,0,0,1,5,2.63,16.51,16.51,0,0,1,3.12,5.33,39.67,39.67,0,0,1,1.65,7.81c-0.87-1.85-1.53-3.76-2.24-5.71a17,17,0,0,0-4.35-7.26,12.14,12.14,0,0,0-14.44-1.2,12,12,0,0,0-5.09,6.78,17.5,17.5,0,0,0-.8,1.85,0,0,0,0,0,0,.06A19.24,19.24,0,0,0,17.26,27c0,0.19.24,0.28,0.29,0.1,0.77-2.88,2.08-5.64,4.68-7.26a8.05,8.05,0,0,1,5.9-1.34,3.75,3.75,0,0,1,2.36,1.73c0.77,1.28.64,2.75,1.08,4.12,1,3,4.59,2.13,6.73,3.69,1.41,1,2.37,2.58,3.83,3.55a4.18,4.18,0,0,0,3.51.74,9.88,9.88,0,0,0,.79.75C46.23,33,46,32.94,45.8,32.9a21.44,21.44,0,0,0-4.66,0,9.07,9.07,0,0,1-2.56-.23,5.79,5.79,0,0,1-2.47-1.51c-1.27-1.19-2.44-2.66-4.25-3a9.7,9.7,0,0,0-6.66,1.63A10.89,10.89,0,0,0,21,33.89a12.45,12.45,0,0,0-1.2,6.58,19.1,19.1,0,0,0,1.16,3.6,14,14,0,0,1,.36,3.44A7.24,7.24,0,0,0,22,50.75a14.69,14.69,0,0,0,2.08,2.63,14.64,14.64,0,0,1,2.56,3.72c0.15,0.43.3,0.87,0.43,1.31,0.28,1,.38,2,0.59,3a0.22,0.22,0,0,0,.43,0,9,9,0,0,0-.52-3.4,10,10,0,0,0-.49-1.42c-0.49-1.36-1.08-2.68-1.6-4A4,4,0,0,1,25.77,49a19.89,19.89,0,0,1,2.1-3.08,28.2,28.2,0,0,0,2.05-2.81,9.35,9.35,0,0,1,3-3.2A13.2,13.2,0,0,1,36.81,38c1.45-.36,2.94-0.5,4.39-0.88,0.83-.22,1.67-0.39,2.52-0.53a2,2,0,0,1,.76.38,2.5,2.5,0,0,1,.68,1,16.86,16.86,0,0,0-7.68,15.62,9.52,9.52,0,0,0,1.69,4.59,13.22,13.22,0,0,0,4.23,3.23A25.68,25.68,0,0,1,47,64a17,17,0,0,0,1.07,1.36c0,0.06.16,0,.11-0.08l-0.38-.57a28.38,28.38,0,0,1,4.74,5.71,0.24,0.24,0,0,0,.45-0.1,6.22,6.22,0,0,0-1.13-3c-0.77-1.47-.37-2.64.35-4a6.78,6.78,0,0,0,1-3.65,10.2,10.2,0,0,0-.72-3c0.19,0.23.37,0.47,0.54,0.72a9.54,9.54,0,0,1,.93,1.73,6.79,6.79,0,0,0,.85,2,70.93,70.93,0,0,1,0,7.92,48.38,48.38,0,0,1-1.31,8.19,50.32,50.32,0,0,1-2.58,7.7,59,59,0,0,1-4.07,7.52,0.31,0.31,0,0,0,.52.34A41.72,41.72,0,0,0,53.22,81a45.87,45.87,0,0,0,2.24-13,35,35,0,0,0-.33-6.62,1.29,1.29,0,0,0,.47.16c0.91,0.13,1.26-.72,1.47-1.46a57.85,57.85,0,0,1-4.4,26.56,62.34,62.34,0,0,1-3.83,7.72,0.41,0.41,0,0,0,.68.45,55.82,55.82,0,0,0,8.31-28.63,37,37,0,0,0-.52-6.94c0.28-1,.56-2,0.8-3a33.87,33.87,0,0,0,3,5.14c1.31,1.88,2.58,4.08,2.47,6.42A11.64,11.64,0,0,0,63.43,69a0.27,0.27,0,0,0,.53.1,6.27,6.27,0,0,0,.27-2,21.94,21.94,0,0,1,3.29-6.86,29.93,29.93,0,0,0,4.22-8.48,11.93,11.93,0,0,0-.79-8.62A8.37,8.37,0,0,0,67.81,40c3.59-1.11,7.64-2,11.31-.85a4.92,4.92,0,0,1,2.7,1.83v0a0.18,0.18,0,0,0,.08.12,3.91,3.91,0,0,1,.56,2.41c-0.15,2.09-1.45,3.79-2.7,5.37,0,0,0,.09.08,0,1.35-1.63,2.86-3.42,2.9-5.65A4.16,4.16,0,0,0,82.16,41ZM59.41,42.91a0,0,0,0,0,0,0c2.69-.31,5.92-0.58,8,1.51a9.37,9.37,0,0,1,2.39,7.06,16.87,16.87,0,0,1-1.68,5.67c-0.68,1.61-1.41,3.2-2.14,4.79a23.08,23.08,0,0,0-1.86,3.8c0-.3,0-0.6,0-0.89a0.11,0.11,0,0,0,.21,0c1.41-5,5.16-10.06,3.84-15.5a8.08,8.08,0,0,0-8-6.2A8.46,8.46,0,0,0,59.41,43h0Zm3.13,19.33a34.84,34.84,0,0,1-.1-4c0.06-1.54.21-3.08,0.29-4.62a11.5,11.5,0,0,0-3-9.58h0a8.94,8.94,0,0,1,3.15,3.69,14.37,14.37,0,0,1,1.25,5.94c0,3.48-.77,6.93-0.65,10.41a13.62,13.62,0,0,0-.84-1.64ZM61,59.87a14.07,14.07,0,0,1-.28-6.36,14.82,14.82,0,0,0,.43-4.78,6.56,6.56,0,0,0-.89-2.29,3.67,3.67,0,0,1-.71-2.9h0.12a21.68,21.68,0,0,1,2.63,5.15c0.58,1.8.3,3.79,0.18,5.64a56.93,56.93,0,0,0-.19,7.47C61.84,61.14,61.4,60.5,61,59.87Zm-0.78-1.36c-2-2.09-1.33-5-1.24-7.65a9.91,9.91,0,0,0-.63-3.73c-0.46-1.35-.64-3,1-3.59h0.16c-0.55,1.44.62,2.67,1.16,4,0.83,2,.21,4.08-0.12,6.09a16.11,16.11,0,0,0-.1,4,15.12,15.12,0,0,0,.24,1.8l-0.56-.84,0,0S60.22,58.56,60.17,58.51ZM55.35,49c-1-1.46-2.44-3.5-1.18-5.25s3.07-.07,4.54-0.62l0.05,0.17c-1.6-.08-3.45.95-3.52,2.66,0,1.08.7,2.05,1.09,3a13.91,13.91,0,0,1,.91,3.61,14.82,14.82,0,0,0-1.78-3.29l-0.07-.09A0.23,0.23,0,0,0,55.35,49Zm9,3.15A13.06,13.06,0,0,0,62.75,47c-0.63-1.19-1.55-3-2.77-3h0c3.28,1,5,4.87,5.17,8.34A22.06,22.06,0,0,1,64.8,57c-0.34,2.35-.73,4.63-1,7C63.75,60.07,64.65,56.1,64.3,52.15Zm-5-8.84h0a0.25,0.25,0,0,0,0,0l0.09,0Zm4.52,21.57q0-.16,0-0.32h0c0,0.11,0,.22,0,0.33h0Zm1.22-7a37.89,37.89,0,0,0,.59-4.38,11.63,11.63,0,0,0-2-7.42,8.41,8.41,0,0,0-2.27-2.2,10,10,0,0,1,5.51,9.5c-0.19,2.47-1.21,4.77-2,7.09-0.21.61-.43,1.27-0.61,2Q64.63,60.14,65,57.86ZM64.44,63a34.25,34.25,0,0,1,1.14-3.77c0.79-2.3,1.66-4.69,1.54-7.16a10.13,10.13,0,0,0-5.69-8.46,7.9,7.9,0,0,1,6.88,6.71c0.62,5.19-2.84,9.62-4.1,14.43A10.85,10.85,0,0,1,64.44,63ZM59.87,39.18a6.36,6.36,0,0,1,.92-1.09c3.46-2.11,7.37-3.72,11.47-3.46a12.64,12.64,0,0,1,5.67,1.74,10.2,10.2,0,0,1,3.29,3.19A16.36,16.36,0,0,0,75,35.8a16.56,16.56,0,0,0-11.28,1,17.06,17.06,0,0,0-4.09,2.77C59.71,39.44,59.78,39.31,59.87,39.18Zm8.74-6.39a9.58,9.58,0,0,1,8,.69,15,15,0,0,1,4.21,4.28l-0.32-.36a17.69,17.69,0,0,0-1.61-1.63,12,12,0,0,0-3.39-2.2c-2.8-1.12-5.93-.41-8.65.59A15.75,15.75,0,0,0,68.61,32.79Zm-1.77,1.58c2.7-.93,5.77-1.62,8.52-0.51a11.86,11.86,0,0,1,3.45,2.29q0.75,0.68,1.44,1.44a8.77,8.77,0,0,0,1,1.12l0.12,0.44c-1.85-2.85-5.51-4.48-8.77-4.77A18.44,18.44,0,0,0,62.19,37L63,36.47c1.23-.75,2.53-1.45,3.74-2.25A0.1,0.1,0,0,0,66.84,34.37Zm7.87-3a11.55,11.55,0,0,1,3.92,2.46,8.73,8.73,0,0,1,2,3.14,16.2,16.2,0,0,0-1-1.27A12.32,12.32,0,0,0,76.38,33a9.77,9.77,0,0,0-7.28-.65L69.42,32a13.42,13.42,0,0,0,1.09-1.44A17.22,17.22,0,0,1,74.72,31.37ZM74.23,26.5a11.09,11.09,0,0,0-2.65,1.64,19,19,0,0,0-1.94,2.55,11.28,11.28,0,0,1-2.87,2.69c-1.91,1.29-4.08,2.23-5.89,3.67a7.09,7.09,0,0,0-1.6,1.74l-0.19.13a0.1,0.1,0,0,0,0,.17,5.32,5.32,0,0,0-.4.91c-0.72-1.94,1-3.67,2.68-4.58s3.29-1.61,4.58-3.09a21,21,0,0,1,2.09-2.26c0.83-.72,1.76-1.32,2.66-2,1.8-1.26,3.62-2.49,5.39-3.79a3.47,3.47,0,0,1-.47,1.05A4,4,0,0,1,74.23,26.5Zm2.67-2.41A0.3,0.3,0,0,0,76.73,24a8.29,8.29,0,0,1,.3-0.85,6.8,6.8,0,0,1,.73,2.54,0,0,0,0,0,.1,0A3.88,3.88,0,0,0,77.07,23a3.1,3.1,0,0,1,.4-0.67,10.29,10.29,0,0,1,.36,4.15c0,0.07.1,0.07,0.11,0a7.77,7.77,0,0,0-.46-4.17,1.33,1.33,0,0,1,1.09-.54h0A16.18,16.18,0,0,1,78.31,26q-0.33.68-.67,1.35A5,5,0,0,0,76.9,24.09Zm-1.66-3.45c1.24,0,2.7-.48,3.84.19,1.56,0.92.13,3.27-.42,4.45a9,9,0,0,0,0-3.48h0a1.86,1.86,0,0,1,.44.09,6.85,6.85,0,0,1,0,2.17c0,0.06.08,0.1,0.1,0a4.9,4.9,0,0,0,0-2.19l0.1,0a0.09,0.09,0,0,0,.11-0.13,1.12,1.12,0,0,0-1.55-.3,3,3,0,0,0-1.48,2.14l-0.1.38c-2,1.36-4,2.8-6,4.21a21.8,21.8,0,0,0-2.9,2.26c-0.8.8-1.43,1.75-2.27,2.51-1.6,1.47-3.86,1.9-5.44,3.38a3.42,3.42,0,0,0-1,3.95c0,0.11-.05.22-0.07,0.32l0,0a6.77,6.77,0,0,0-.71-0.94,0.09,0.09,0,0,0,0-.09c0-.1-0.07-0.2-0.09-0.29l0,0a0,0,0,0,0,.08,0,2.21,2.21,0,0,0-.22-0.74c-0.11-2.29,2.38-3.91,4.24-4.89a14.12,14.12,0,0,0,2.72-1.7c0.92-.8,1.51-1.89,2.4-2.72,1.68-1.57,4.11-2,5.73-3.64s2.9-5.12,5.94-4.39a0,0,0,0,0,0-.08c-1.65-.74-3.31.64-4.25,1.87a17.35,17.35,0,0,1-2.22,2.78,13.26,13.26,0,0,1-2.85,1.69A11.65,11.65,0,0,0,67,29a30,30,0,0,0-2.15,2.44c-1.49,1.56-3.65,2.11-5.34,3.4a5.09,5.09,0,0,0-2.11,3.45l0,0a0.07,0.07,0,0,0,0,0L57.23,38C57,35.92,59,34.07,60.62,33A26.51,26.51,0,0,0,63,31.24a10.42,10.42,0,0,0,2-2.5,6.55,6.55,0,0,1,2.65-2.49,20.67,20.67,0,0,0,2.69-1.44c1.91-1.38,3.25-4.64,6.11-3.84a0,0,0,0,0,0-.07c-2.37-1.07-4.12,1.73-5.54,3.1a14.46,14.46,0,0,1-3.51,2.09,6.46,6.46,0,0,0-2.51,2.3,11.26,11.26,0,0,1-2.62,3.11c-1,.78-2.16,1.41-3.15,2.25A5.75,5.75,0,0,0,57,37.29a3.87,3.87,0,0,1,0-1.41h0a6.91,6.91,0,0,1,2.33-3.6c1.5-1.31,3.27-2.35,4.41-4a8.25,8.25,0,0,1,2.05-2.59c0.85-.56,1.87-0.79,2.74-1.31,1.66-1,2.47-3.76,4.51-4A9.29,9.29,0,0,0,75.24,20.64ZM56,36.33h0a2.14,2.14,0,0,0,0,.26Q56,36.46,56,36.33ZM55.32,33a9.65,9.65,0,0,0,.21,1.29L55.3,35,55,34.5Q55.15,33.77,55.32,33Zm0.42,2.46-0.25-.23,0.18-.43q0.07,0.25.15,0.5Zm0.14,0,0,0.12-0.07-.06Zm-0.11.28L56,36h0q0,0.08,0,.16l-0.1,0Q55.86,36,55.78,35.82ZM56,35.3l0.42-.78a4.32,4.32,0,0,0-.35,1Zm-0.07-.22q-0.08-.27-0.16-0.54l0.45-1.09c0,0.25.09,0.5,0.14,0.74Zm1-5.31a4.13,4.13,0,0,0-.83,2.87L55.66,34a8.28,8.28,0,0,1-.18-1.63q0.3-1.35.58-2.7a5.54,5.54,0,0,1,1.47-1.84l0.72-.57-0.8,2.05A3.28,3.28,0,0,0,57,29.76Zm0.25,0.09Q56.8,30.94,56.39,32A3.54,3.54,0,0,1,57.23,29.85ZM54.68,34a4,4,0,0,1-.79-2.45c0.1-1.17,1.07-2,1.66-3,0.08-.13.15-0.26,0.22-0.4C55.39,30.17,55,32.1,54.68,34ZM55.5,36l0,0-0.27-.11,0.11-.26Zm-0.11.23-0.19.38-0.25-.05,0.17-.41Zm-0.09.4,0.2-.37,0.14,0a4.22,4.22,0,0,1,.17.49h0Zm0.87,0.3c0-.08,0-0.16-0.05-0.23a2,2,0,0,0,.09.25Zm0.7,0.51h0c-0.2-.46-0.4-0.92-0.58-1.4a3.09,3.09,0,0,1,.27-1.19c0.1,0.35.21,0.7,0.31,1A3.68,3.68,0,0,0,56.86,37.43ZM56.41,33q0.77-1.88,1.51-3.78a13.83,13.83,0,0,1,1.35-.76q-1.38,2.69-2.73,5.39C56.48,33.59,56.44,33.31,56.41,33Zm2.93-4.86c-0.42.24-.86,0.45-1.27,0.7q0.41-1.08.81-2.16a4,4,0,0,0,.71-0.85c0.59-1,.75-2,1.87-2.55A5,5,0,0,1,62,23.07l-2.58,5Zm1.87-5c-0.95.52-1.14,1.34-1.57,2.26a3.45,3.45,0,0,1-.62.89q0.37-1,.73-2,0.28-.8.55-1.62c0.51-.15,1-0.3,1.52-0.48a6.73,6.73,0,0,0,.86-0.39l-0.5,1A5.12,5.12,0,0,0,61.21,23.2Zm-1.93,1.26c-0.29.83-.6,1.65-0.92,2.47-0.49.39-1,.75-1.48,1.19a4.68,4.68,0,0,0-.68.83q0.41-2,.78-4.06a3.78,3.78,0,0,1,2-1.73c0.29-.12.59-0.22,0.89-0.32Q59.56,23.66,59.28,24.46Zm-1-1.41a3.62,3.62,0,0,0-1.18,1l0.33-1.83,0.23-.12c0.87-.4,1.81-0.62,2.67-1l0.05,0q-0.22.73-.46,1.46A8.39,8.39,0,0,0,58.32,23.05Zm-2,2.56c-0.19.51-.34,1.05-0.53,1.59a10,10,0,0,1-1.49,2.59A3.38,3.38,0,0,0,53.53,32a4.86,4.86,0,0,0,.89,2.27,5.64,5.64,0,0,1-1.78-3.65,8,8,0,0,1,1.11-3.71,20.48,20.48,0,0,1,1.53-2.71,6.57,6.57,0,0,1,1.56-1.6Q56.57,24.09,56.28,25.62ZM54.85,35l0.2,0.18,0.11,0.18L55,35.82l-0.33-.17Zm0.09,1-0.14.45-0.3-.05,0.13-.54Zm0.38,1a2.92,2.92,0,0,1,1.09.48,3.81,3.81,0,0,0-1.67-.4ZM72.8,20.23c-1.88.37-2.74,3-4.3,3.93-0.89.53-1.92,0.75-2.78,1.33a8.57,8.57,0,0,0-2.1,2.64c-1.38,2-3.7,3.07-5.29,4.9A6.72,6.72,0,0,0,57,35.47c-0.09-.31-0.18-0.63-0.26-0.95A13.94,13.94,0,0,1,58.55,32c1.45-1.71,2.85-3.48,4.39-5.11A10.7,10.7,0,0,1,65.3,25c0.76-.44,1.56-0.78,2.29-1.27a4.76,4.76,0,0,0,1.52-1.59c0.59-1,1.38-2.61,2.83-1.91a0,0,0,0,0,0-.06c-1.76-1.36-3,2.08-3.87,2.88a17.61,17.61,0,0,1-3,1.78,11.16,11.16,0,0,0-2.49,2.11c-1.73,1.88-3.36,3.89-5,5.86A9.73,9.73,0,0,0,56.71,34q1.55-2.9,3.07-5.82L60.07,28a5.82,5.82,0,0,0,1.59-2.11,3.89,3.89,0,0,1,2.34-2,16.24,16.24,0,0,0,2.31-.75c1.7-.85,2-3.39,3.84-3.83,0.57,0.23,1.13.46,1.71,0.66Q72.32,20.09,72.8,20.23Zm-3-1.12c-1.55.46-2.12,3-3.48,3.73-0.9.48-2,.57-2.88,1a3.77,3.77,0,0,0-1.84,1.75,7.65,7.65,0,0,1-1.51,2.09l2.11-4.06,0.34-.65c0.5-.13,1-0.24,1.5-0.38a3.7,3.7,0,0,0,1.8-1c0.78-.91.85-3.11,2.52-2.79a0,0,0,0,0,0-.07,1.51,1.51,0,0,0-1.88,1,5.53,5.53,0,0,1-1.06,1.94,4,4,0,0,1-1.55.75c-0.4.12-.82,0.21-1.23,0.31l0.66-1.25a3.59,3.59,0,0,0,.43-0.4c0.91-1,1.4-2.9,3.08-2.72a0,0,0,0,0,0-.06c-1.55-.39-2.24,1.21-3.07,2.31q0.71-1.36,1.41-2.72A15.4,15.4,0,0,1,69.78,19.11Zm-5-1.3c-0.61,1.2-1.26,2.39-1.87,3.57a8.12,8.12,0,0,1-2.5,1q0.26-.81.51-1.63a3.94,3.94,0,0,0,1.09-1,8.85,8.85,0,0,1,1.3-1.8A10.4,10.4,0,0,1,64.78,17.81ZM63,17.92A5.48,5.48,0,0,0,62.14,19a4.78,4.78,0,0,1-1.08,1.22q0.3-1,.56-2A10.76,10.76,0,0,1,63,17.92Zm-1.81.44q-0.29,1.13-.62,2.26a5.83,5.83,0,0,1-.89.42c-0.7.27-1.43,0.48-2.11,0.79l0.23-1.29,0.1-.55A14.39,14.39,0,0,1,61.15,18.36Zm-3.93,2.06L57.13,21c-0.07.4-.14,0.8-0.21,1.2l-0.17.1a7.44,7.44,0,0,0-2.11,2.35c-1.14,1.84-2.58,4.25-2.23,6.5a6.64,6.64,0,0,0,2.15,3.63c0,0.25-.08.5-0.12,0.76a6,6,0,0,1-2.55-5.77c0.33-3.3,2.44-5.65,4.14-8.33,0,0,0-.06,0,0-2.28,2.4-4.45,5.71-4.41,9.13a6.35,6.35,0,0,0,2.81,5.3l-0.1.63a11.86,11.86,0,0,1-1.59-.3,0.21,0.21,0,0,0-.07-0.06l0,0a10.61,10.61,0,0,1-1.58-5,18.16,18.16,0,0,1,.65-4.23,16.44,16.44,0,0,1,1.06-2.59A43.46,43.46,0,0,1,57.22,20.42ZM50.59,35.76c-0.22-.23-0.44-0.45-0.67-0.66,0.36,0.22.73,0.42,1.1,0.62Zm0.87-10.36,1.11-1A14.05,14.05,0,0,0,51,29.77a28.43,28.43,0,0,1,.45-4.34Zm-0.82,2.72a18.12,18.12,0,0,1,.64-7.19A18.09,18.09,0,0,0,52,16.15C52.46,20.08,51,24.19,50.65,28.13Zm0.21-15.77a10.25,10.25,0,0,1,.81,2.06c0.4,2.59-.27,5-0.87,7.57a13.56,13.56,0,0,0-.19,6.58v0.11a11.88,11.88,0,0,0,1.38,7l-0.17-.09a18.45,18.45,0,0,1-2.23-6.41,22.32,22.32,0,0,1,.57-8.16C51,17.5,52,12.31,48.54,9.73A6.88,6.88,0,0,1,50.86,12.37ZM48.12,9.5a0.07,0.07,0,0,0,0,.12c4.28,3.37,2.12,9.07,1.4,13.5a18.21,18.21,0,0,0,2,12.39l-1-.56c-2.89-3.4-3.29-8.07-2.71-12.43,0.35-2.67,1.17-5.29,1.41-8,0.17-1.93-.27-4.08-2-5.16a0.06,0.06,0,0,0-.06.1c2.48,1.73,2,5,1.44,7.51a46.11,46.11,0,0,0-1.12,7.61c-0.14,3.51.4,7.25,2.57,10a8.05,8.05,0,0,1-2.82-2.86,8.59,8.59,0,0,1-.67-5.43A13.26,13.26,0,0,0,46.7,22a0.09,0.09,0,0,0,0-.07v0a6,6,0,0,0-.33-1.06c-0.44-2.42,1.17-4.77,1.63-7.12,0.33-1.68-.06-3.92-1.79-4.67A3.64,3.64,0,0,1,48.12,9.5ZM46,9.11c2.55,1.29,2,4.39,1.17,6.59A12,12,0,0,0,46,20.27L45.9,20a10.51,10.51,0,0,0-2.26-2.46A1.62,1.62,0,0,1,43.56,17a0.06,0.06,0,0,0,0-.11h0c0.06-1.19,1-2.7,1.25-3.59a5.49,5.49,0,0,0-.46-3.9,3.56,3.56,0,0,0,.5-0.08,2.9,2.9,0,0,1,1.33,2.56,9.19,9.19,0,0,1-.88,3c-0.54,1.4-1,3.21.17,4.44a0.09,0.09,0,0,0,.13-0.12c-1.64-2.11.31-4.45,0.7-6.62,0.19-1.05-.06-2.91-1.28-3.29l0.7-.17ZM41.43,8A4.9,4.9,0,0,0,44,9.43h0.22a6.4,6.4,0,0,1,.54,3.1,10.64,10.64,0,0,1-1.08,3,3.61,3.61,0,0,0-.27,1.35c-2.33-.78-0.05-3.76.19-5.18a3,3,0,0,0-1.55-3.11c-0.06,0-.11.05-0.06,0.09a3,3,0,0,1,1.49,2.67,11,11,0,0,1-1,2.87c-0.35,1-.24,2.51,1,2.8a2.41,2.41,0,0,0,.06.44l-0.74-.57a0.06,0.06,0,0,0,0-.09,1.87,1.87,0,0,1-.29-0.14l-0.25-.18c-0.81-.7-0.62-2-0.39-3a7.32,7.32,0,0,0,.29-2.49A5.37,5.37,0,0,0,40,7.11,5.5,5.5,0,0,1,41.43,8Zm-1,2.85c-0.21-1.22-.54-2.91-1.81-3.46a1.66,1.66,0,0,0-.48-0.13,1.73,1.73,0,0,1,1.75-.16,5.91,5.91,0,0,1,1.86,6,4.37,4.37,0,0,0,0,3L41.58,16l-1.16-.76A10.87,10.87,0,0,0,40.44,10.84ZM43.76,21a16,16,0,0,0-2.42-4.47l0.29,0.2c1.65,1.17,3.41,2.48,4.25,4.38,1,2.19.15,4.54,0.05,6.81A8.19,8.19,0,0,0,46.35,31L46,30.53q-0.27-.48-0.51-1A37.27,37.27,0,0,0,43.76,21Zm-12.4-7.75a12.27,12.27,0,0,1,7.49,3.25A17.41,17.41,0,0,1,43,23.69C43.51,25.28,44,27,44.69,28.54c-1.94-3.15-3.4-6.6-5.7-9.52-2.75-3.5-6.83-5.74-11.37-4.77a9.58,9.58,0,0,0-5.76,3.54h0c2.15-2,4.54-3.51,7.59-3.59a11,11,0,0,1,8,3.26c3.55,3.47,5.07,8.31,7.85,12.31a12.36,12.36,0,0,0,1.19,1.89,0.1,0.1,0,0,0,.17,0,6.73,6.73,0,0,0,.32.61l0,0.07a25.5,25.5,0,0,1-3.42-4.16c-1.93-2.77-3.7-5.65-5.64-8.41a11.52,11.52,0,0,0-6.26-4.87,10,10,0,0,0-7.87,1.48,13.46,13.46,0,0,0-4.43,5A12.16,12.16,0,0,1,31.36,13.23ZM38.15,27c-1.29-.74-2.78-0.71-4.14-1.21-1.89-.7-1.72-2.57-2.08-4.22a4.8,4.8,0,0,0-4.08-4,7,7,0,0,0-2.44.15,18.52,18.52,0,0,1,2.18-.53,5.32,5.32,0,0,1,3.36,1.06,5.79,5.79,0,0,1,1.92,2.55,8,8,0,0,0,1.26,2.6A9.21,9.21,0,0,0,36.51,25a20.38,20.38,0,0,1,2.75,1.91,59,59,0,0,1,5.15,5C41.9,31.34,40.34,28.25,38.15,27Zm6.41,5a0.07,0.07,0,0,0,0-.09,47.28,47.28,0,0,0-5.21-5.09,23.45,23.45,0,0,0-3.07-2.1A5.45,5.45,0,0,1,33.51,22a10.49,10.49,0,0,0-1.31-2.76,5.86,5.86,0,0,0-2.13-1.69,5.57,5.57,0,0,0-1.42-.44,6.81,6.81,0,0,1,2.71.34c2.54,0.89,3,3.4,4.51,5.33a39.92,39.92,0,0,0,4.43,4.42c1.39,1.3,2.84,2.53,4.2,3.86,0,0,.07,0,0,0-1.48-1.42-2.93-2.85-4.43-4.25-1.73-1.62-3.69-3.22-4.85-5.32a13.85,13.85,0,0,0-1.78-2.9,5.27,5.27,0,0,0-2.62-1.47A7.94,7.94,0,0,0,27.59,17a5.32,5.32,0,0,0-2.69.76l-1.17.47a0,0,0,0,0,0,0l0.41-.13a11.24,11.24,0,0,0-2.2,1.15,9.68,9.68,0,0,0-3,3.31A15.36,15.36,0,0,1,23.49,17,9.66,9.66,0,0,1,32,15.39c2.77,0.92,4.68,3.24,6.14,5.66,1.56,2.58,3.2,5.13,4.84,7.66a29.51,29.51,0,0,1-4-4.63c-1.44-2-2.7-4.18-4.33-6A6.47,6.47,0,0,0,29,15.75a13.85,13.85,0,0,0-6.67,3.08,0,0,0,0,0,0,.05c2.24-1.28,4.38-2.83,7.05-3s4.58,1.43,6.1,3.5c2.41,3.29,4.53,7.05,7.73,9.67l0.08,0.12A23.81,23.81,0,0,0,45.4,32,3.69,3.69,0,0,1,44.56,32Zm-7.14,5.21a13.42,13.42,0,0,0-4.27,1.69A10.22,10.22,0,0,0,30,41.58c-0.73,1-1.3,2.08-2.06,3.07a29.26,29.26,0,0,0-2.67,3.68,14.16,14.16,0,0,1,2.92-8.21c0.07-.09-0.08-0.19-0.15-0.1a13,13,0,0,0-2.88,8.31,0.05,0.05,0,0,0,.08,0,5.61,5.61,0,0,0-.75,2.73,4.67,4.67,0,0,0,.43,1.67l0.39,1c-0.29-.33-0.6-0.66-0.91-1a21.25,21.25,0,0,1-.78-5.67A18.87,18.87,0,0,1,24.87,41a0.06,0.06,0,0,0-.12,0,16.37,16.37,0,0,0-.62,11.44l-0.46-.53a18.93,18.93,0,0,1-1-5.4,14.78,14.78,0,0,1,1.12-5.58c0-.08-0.09-0.12-0.13,0-1.36,3.12-1.79,7.29-.4,10.53a6.35,6.35,0,0,1-.91-1.6c-0.69-1.86-.21-3.91-0.72-5.81a19.43,19.43,0,0,1,1.74-5c0-.06-0.06-0.12-0.09-0.06a16.13,16.13,0,0,0-1.71,4.87l0-.11a13.83,13.83,0,0,1-1.08-3.52,12.11,12.11,0,0,1,.38-3.62,8.48,8.48,0,0,1,3.29-5.11,11.44,11.44,0,0,1,6.66-2.62c2,0,3.29,1.34,4.73,2.61a6.81,6.81,0,0,0,4.13,1.91c1.63,0.13,3.25-.2,4.88-0.15a9,9,0,0,1,5.75,2.64h0L50,35.8a10.38,10.38,0,0,0-2.12-1.24,7.5,7.5,0,0,0-3.11-.84,0,0,0,0,0,0,0c0.91,0.37,1.9.52,2.81,0.92L48.25,35a13.71,13.71,0,0,0-5.05-1,0,0,0,0,0,0,.06,14,14,0,0,1,3.5.55,14.68,14.68,0,0,1,1.84.74A12.6,12.6,0,0,0,47.2,35a15.31,15.31,0,0,0-5.35-.73s0,0.06,0,.06a16.15,16.15,0,0,1,3.77.43,14.34,14.34,0,0,0-5.11.45,0,0,0,0,0,0,.07,18.52,18.52,0,0,1,5-.32,12.82,12.82,0,0,1,1.8.31q0.55,0.19,1.09.42a27.7,27.7,0,0,0-6.58.64C40.37,36.62,38.9,36.9,37.42,37.18Zm6.87-.63a38.82,38.82,0,0,1,4.7-.38,17.73,17.73,0,0,0-3.08,1.43l-0.48.28A1.94,1.94,0,0,0,44.29,36.55Zm8.21,25A20,20,0,0,1,51.38,64c-0.62-1.29.19-2.74,0.18-4.11A8.26,8.26,0,0,0,51,57c-0.85-2.29-2.25-4.46-2.07-7a0,0,0,0,0-.05,0c-0.36,2.46,1,4.66,1.88,6.87a7.66,7.66,0,0,1,.53,4.17c-0.19,1-.51,2.15.06,3.07A3.71,3.71,0,0,0,50.95,66a3,3,0,0,0,.18.73L51,66.62a0.08,0.08,0,0,0,0-.06l0,0c-1.36-2.4-.3-5.43-0.93-8-0.74-3.07-2.81-5.61-2.06-8.93a0,0,0,0,0,0,0c-1.3,3,1.25,6.16,1.92,9,0.57,2.35-.35,5.27.66,7.52-1.66-2.06-1.41-4.92-1.93-7.39C48.29,57.21,47.47,56,47,54.57a6.43,6.43,0,0,1-.29-2.24A22.69,22.69,0,0,0,46.93,50h0a7.75,7.75,0,0,0-.25,4.44c0.37,1.66,1.41,3,1.74,4.65,0.52,2.59.22,5.77,2.46,7.67a0.07,0.07,0,0,0,0,0,4.12,4.12,0,0,0,.4.48,21.86,21.86,0,0,1,1,2,24.25,24.25,0,0,0-3.82-4.68c-1.28-2.14-1.66-4.7-2.5-7.07a0,0,0,0,0-.06,0A21.32,21.32,0,0,0,48,64l-0.17-.15a0.06,0.06,0,0,0,0-.07c-1.73-2.16-2.28-4.65-3-7.26a0,0,0,0,0,0,0,13.63,13.63,0,0,0,2.64,7l-0.8-.66-0.05,0a25.09,25.09,0,0,1-1.44-2.63,29.61,29.61,0,0,1-2-5.89,0,0,0,0,0-.05,0,27.36,27.36,0,0,0,2.25,6.89c-0.15-.16-0.31-0.32-0.48-0.47A17.08,17.08,0,0,1,43,57.39a17.9,17.9,0,0,1-.89-2.74c-0.22-.91-0.28-1.83-0.47-2.74a0,0,0,0,0-.07,0,12.67,12.67,0,0,0,1.18,5.45,16.86,16.86,0,0,0,1.46,2.78c-0.47-.39-0.94-0.76-1.3-1.12-2.18-2.19-2.06-5.4-2.44-8.25,0,0-.08,0-0.08,0a16.37,16.37,0,0,0,.36,4.34A8.29,8.29,0,0,0,42,58.49a18.51,18.51,0,0,0,2.46,2.28,18.72,18.72,0,0,1-3.15-2.38C39.19,56,39.46,52.7,39.29,49.7a0,0,0,0,0-.06,0c-0.31,2.7-.22,5.84,1.35,8.17,1.27,1.89,3.56,2.6,5,4.26-2.54-1.69-5.56-2.92-6.79-5.89s-0.83-6.9.36-10A15.67,15.67,0,0,1,44.78,39a20.85,20.85,0,0,1,3.71-2A13.76,13.76,0,0,1,50,36.4h0a4,4,0,0,1,1.87-.14,7.15,7.15,0,0,0-3.67,1.27s0,0.12,0,.08a9.76,9.76,0,0,1,3.85-1.26l0,0,0.21,0.09a0.22,0.22,0,0,0,.16,0l0.25,0.09c-3.21-.17-6.11,2.26-8.29,4.34a0.08,0.08,0,0,0,.11.12c2.61-2.16,5.12-4.29,8.66-4.33l0.48,0.11a12.32,12.32,0,0,0-4.31,1.57,12.46,12.46,0,0,0-4.77,4.87A11.62,11.62,0,0,0,43.23,49a17.42,17.42,0,0,0,2,7.27,0.15,0.15,0,0,0,.27-0.14A20.12,20.12,0,0,1,43.77,49a11.31,11.31,0,0,1,1.39-5.52,12.14,12.14,0,0,1,4.54-4.72,12.35,12.35,0,0,1,3.14-1.3l0.55-.12a10.06,10.06,0,0,0-3.83,2.76,0.08,0.08,0,0,0,.1.11,9.66,9.66,0,0,1,4.11-2.65,4.06,4.06,0,0,1,1-.1,5.28,5.28,0,0,0-.74.21c-1.9.68-2.76,2.84-4.48,3.83a0.1,0.1,0,0,0,.09.18c1.42-.61,2.17-2,3.31-3a4.25,4.25,0,0,1,2.3-1,2.14,2.14,0,0,1,.83,0,3.22,3.22,0,0,1,1.11.81,3.22,3.22,0,0,0,.24.58l0,0a2.89,2.89,0,0,0,.11.34A3,3,0,0,0,56.7,39c-1-.43-2.2.25-2.95,0.89a10.74,10.74,0,0,0-2.53,3.43,13.33,13.33,0,0,0-1.17,8.52,24.78,24.78,0,0,0,1.61,4.46C52.36,57.93,53.05,59.77,52.5,61.58ZM57,57.25a10.25,10.25,0,0,0-.87-3.19,0,0,0,0,0,0,0,17.65,17.65,0,0,1,.65,4.19l-0.16.65a12.45,12.45,0,0,0-1.29-4.24,0,0,0,0,0,0,0,19.11,19.11,0,0,1,1.05,5.25v0c0,0.1-.06.26-0.1,0.4a21.38,21.38,0,0,0-1.84-6,0,0,0,0,0,0,0q0.54,1.56,1,3.16c0.27,1,.42,2.11.72,3.13h0a0.1,0.1,0,0,0,0-.08,2.85,2.85,0,0,1-.76-1.84,11.54,11.54,0,0,0-.48-2,10.21,10.21,0,0,0-1.81-3.16s0,0,0,0A11.09,11.09,0,0,1,54.81,58c0.18,1,.12,2.2,1,2.81h0a0.45,0.45,0,0,1-.47-0.06,17.62,17.62,0,0,1-1.13-3.07,3.56,3.56,0,0,0-1.65-2.2,0,0,0,0,0,0,0,4.72,4.72,0,0,1,1.58,2.94,7.14,7.14,0,0,0-.49-0.84,8.65,8.65,0,0,0-.87-1.06A5.83,5.83,0,0,0,52.25,56L52.17,56a23.76,23.76,0,0,1-1.54-4.29,12.85,12.85,0,0,1-.15-4.07,11.64,11.64,0,0,1,3.64-7.35,2.74,2.74,0,0,1,2.27-.86,2.89,2.89,0,0,1,1.16.9,8.82,8.82,0,0,1,.63.78,0.11,0.11,0,0,0,.09.13l0.12,0.18-0.3.36s0,0,0,0l0.34-.28v0a5.27,5.27,0,0,0,.16,1.28c-1.82-.36-4.14-1.14-5.17.93a3.94,3.94,0,0,0,.34,3.77,6.58,6.58,0,0,0,1,1.72c1.35,1.67,2,3.86,2.77,5.83l0,0.1C57.4,55.85,57.21,56.55,57,57.25Zm1.28-2L58.37,55A0.36,0.36,0,0,0,58,54.58c-0.21-.52-0.41-1.05-0.62-1.58A14,14,0,0,0,56,47.73c-0.55-1.17-.81-2.33.24-3.31A4.66,4.66,0,0,1,59,43.49a0.29,0.29,0,0,0,.23,0h0v0a1.81,1.81,0,0,0-1.44,1.75,4.75,4.75,0,0,0,.4,2.05,9.12,9.12,0,0,1,.6,2.83c0.06,1.93-.48,4.28,0,6.24-0.11-.23-0.22-0.46-0.33-0.7ZM71.05,44.41c1.54,3.64.61,7.32-1,10.73,0.83-2.89,1.42-6.1.5-8.93a7.37,7.37,0,0,0-4.94-4.69,6.59,6.59,0,0,0-5.92,1,0,0,0,0,0,0,0,7.3,7.3,0,0,1,10.12,2.53c1.82,3.28.75,7.59-.27,11-0.81,1.54-1.73,3-2.59,4.41,0.39-.86.76-1.72,1.12-2.59a27.86,27.86,0,0,0,1.65-4.31c0.8-3.42.13-8.4-3.27-10.29a9.1,9.1,0,0,0-7-.49,5.84,5.84,0,0,1,5.75-3.07A7.56,7.56,0,0,1,71.05,44.41Zm-5.39-5.27a22.19,22.19,0,0,1,2.41-.56,9.67,9.67,0,0,1,3.51-.2,14.66,14.66,0,0,0-4.29,1.29A6.86,6.86,0,0,0,65.66,39.14Zm8.16-.93a16.76,16.76,0,0,0-2,.14h0a8,8,0,0,0-3.46.09,19.62,19.62,0,0,0-2.81.69L65,39a5.89,5.89,0,0,0-1.43.05,22,22,0,0,1,4.61-1.47,13.17,13.17,0,0,1,7.3.62C74.92,38.22,74.36,38.21,73.82,38.21ZM76,38.29c-4.26-2.07-9-1-13.08.94A5.82,5.82,0,0,0,59.2,42.1l-0.09-.24a5,5,0,0,1,.07-0.95,21.06,21.06,0,0,1,4.08-2.73,17.75,17.75,0,0,1,5.94-1.7A15.44,15.44,0,0,1,75,37a18.34,18.34,0,0,1,4.22,1.89A13.84,13.84,0,0,0,76,38.29Zm5.35,1.78,0,0L81.3,40a4.68,4.68,0,0,0-.52-0.39,17.32,17.32,0,0,0-11.52-3.35A17.77,17.77,0,0,0,63.16,38a16.91,16.91,0,0,0-3.89,2.54c0-.14.08-0.28,0.13-0.41a17.09,17.09,0,0,1,5.22-3.44,16.68,16.68,0,0,1,7.73-1.08,12.22,12.22,0,0,1,5.45,1.69c1.35,0.82,2.47,1.94,3.77,2.82l0.08,0.13,0,0.13C81.58,40.26,81.48,40.16,81.38,40.07Z"/><path d="M28.85,36a21.1,21.1,0,0,0-4.44,15.81,0,0,0,0,0,.06,0,23.93,23.93,0,0,1,4.48-15.74C29,36,28.9,36,28.85,36Z"/><path d="M27.86,42.5a5.47,5.47,0,0,0-1.53,3.79,0,0,0,0,0,.07,0A7.39,7.39,0,0,1,28,42.58,0.06,0.06,0,0,0,27.86,42.5Z"/><path d="M26.32,32.21a5.58,5.58,0,0,1,5.26-1.78s0.05,0,0-.05a5.24,5.24,0,0,0-5.38,1.74A0.07,0.07,0,0,0,26.32,32.21Z"/><path d="M26.24,33.6a4.49,4.49,0,0,1,4-2.63,0,0,0,0,0,0,0,4.25,4.25,0,0,0-4.1,2.62C26.06,33.64,26.2,33.68,26.24,33.6Z"/><path d="M28.23,32.79c-0.06.07,0,.17,0.09,0.11a4.77,4.77,0,0,1,3.4-1.32,0,0,0,0,0,0-.05A3.88,3.88,0,0,0,28.23,32.79Z"/><path d="M34.21,32.76a0,0,0,0,0,0-.06c-2.16-1.09-5,0-6.49,1.73a0.09,0.09,0,0,0,.14.12,6.08,6.08,0,0,1,3-1.83A7.44,7.44,0,0,1,34.21,32.76Z"/><path d="M35.84,33.64s0.06,0,0-.06a5.56,5.56,0,0,0-4.87.14,0.05,0.05,0,0,0,0,.09A7,7,0,0,1,35.84,33.64Z"/><path d="M34,36.74c-0.08,0,0,.17.05,0.14a11.1,11.1,0,0,1,2.11-.55c0.72-.11,1.45,0,2.16-0.15a0,0,0,0,0,0,0C37,35.71,35.25,36.23,34,36.74Z"/><path d="M34.63,35.44a8.64,8.64,0,0,1,1.65-.29c0.56,0,1.11,0,1.67,0a0,0,0,0,0,0-.06,5.14,5.14,0,0,0-3.37.19C34.52,35.35,34.56,35.46,34.63,35.44Z"/><path d="M35.86,34.4a0,0,0,0,0,0-.06,5,5,0,0,0-3.83.45,0.08,0.08,0,0,0,.08.15A7.09,7.09,0,0,1,35.86,34.4Z"/><path d="M47.49,41.39a7.22,7.22,0,0,0-2.38,6.76c0,0.09.15,0.06,0.14,0a8,8,0,0,1,2.32-6.65A0.06,0.06,0,0,0,47.49,41.39Z"/><path d="M47.86,42.21a6.71,6.71,0,0,0-1.64,5.13,0.07,0.07,0,0,0,.14,0,7.93,7.93,0,0,1,1.58-5.06A0,0,0,0,0,47.86,42.21Z"/><path d="M48.6,42.49a7,7,0,0,0-1.51,5.27,0.06,0.06,0,0,0,.13,0,9.59,9.59,0,0,1,1.44-5.21S48.64,42.46,48.6,42.49Z"/><path d="M49.46,42.51a0,0,0,0,0,0,0,9.08,9.08,0,0,0-1.48,6.15,0.06,0.06,0,0,0,.12,0A10.88,10.88,0,0,1,49.46,42.51Z"/><path d="M49.63,43.51a7.26,7.26,0,0,0-.78,4.87c0,0.09.14,0.06,0.13,0a10.15,10.15,0,0,1,.71-4.81A0,0,0,0,0,49.63,43.51Z"/><path d="M44.81,41a8.94,8.94,0,0,0-2.7,5.11,0.09,0.09,0,0,0,.17,0,11.8,11.8,0,0,1,2.55-5.12S44.82,41,44.81,41Z"/><path d="M43.25,41.56a9.18,9.18,0,0,0-1.59,3.39,0.07,0.07,0,0,0,.14,0,15.64,15.64,0,0,1,1.54-3.37A0.06,0.06,0,0,0,43.25,41.56Z"/><path d="M42.32,41.91a3.6,3.6,0,0,0-1.09,2.29,0.07,0.07,0,0,0,.13,0,10.63,10.63,0,0,1,1-2.28A0,0,0,0,0,42.32,41.91Z"/><path d="M78.11,26.17A6,6,0,0,0,78,22.09a0,0,0,0,0,0,0A10.63,10.63,0,0,1,78,26.16C78,26.21,78.09,26.23,78.11,26.17Z"/><path d="M49.08,65c-0.5-2.08-1.07-4.14-1.66-6.19a0,0,0,0,0-.08,0C47.85,60.87,48.4,62.93,49,65A0,0,0,0,0,49.08,65Z"/><text x="0" y="115" fill="#000000" font-size="5px" font-weight="bold" font-family="'Helvetica Neue', Helvetica, Arial-Unicode, Arial, Sans-serif">Created by Victoria Popa</text><text x="0" y="120" fill="#000000" font-size="5px" font-weight="bold" font-family="'Helvetica Neue', Helvetica, Arial-Unicode, Arial, Sans-serif">from the Noun Project</text></svg>